<svg width="162" height="226" viewBox="0 0 162 226" fill="none" xmlns="http://www.w3.org/2000/svg">
<path d="M171.775 -40.7755C173.384 -40.7116 174.486 -39.6968 175.721 -38.7751C176.076 -38.5155 176.076 -38.5155 176.437 -38.2506C177.19 -37.6987 177.94 -37.1434 178.69 -36.5878C179.648 -35.8827 180.606 -35.179 181.565 -34.4753C181.803 -34.3004 182.04 -34.1255 182.285 -33.9452C184.043 -32.6553 185.819 -31.3948 187.607 -30.1466C189.832 -28.5919 192.034 -27.0056 194.236 -25.4183C194.937 -24.9133 195.64 -24.4098 196.342 -23.9067C199.297 -21.7914 202.24 -19.665 205.111 -17.4382C207.489 -15.5993 209.901 -13.8607 212.419 -12.2162C215.891 -9.94311 219.239 -7.50598 222.489 -4.9287C224.538 -3.31233 226.67 -1.80976 228.797 -0.296928C229.503 0.206589 230.207 0.713032 230.91 1.22058C232.894 2.65286 234.88 4.07977 236.903 5.45735C238.549 6.58292 240.146 7.76429 241.739 8.96223C243.246 10.093 244.767 11.2023 246.298 12.2997C246.522 12.4605 246.747 12.6214 246.978 12.787C247.9 13.447 248.822 14.1061 249.745 14.7646C250.444 15.2636 251.143 15.7631 251.841 16.2631C252.179 16.5052 252.179 16.5052 252.525 16.7522C253.884 17.7291 255.219 18.7309 256.539 19.7591C257.916 20.8259 259.325 21.7666 260.81 22.6767C262.472 23.7602 264.019 25.0026 265.577 26.2275C265.403 27.6888 265.097 29.0008 264.623 30.3937C264.557 30.5896 264.491 30.7856 264.423 30.9875C264.279 31.4109 264.136 31.8341 263.991 32.257C263.759 32.9363 263.529 33.6164 263.299 34.2967C262.808 35.7517 262.313 37.2058 261.819 38.6598C261.175 40.5539 260.532 42.4486 259.893 44.3442C259.775 44.6947 259.775 44.6947 259.654 45.0522C258.339 48.9569 257.125 52.8837 255.953 56.8333C255.124 59.623 254.22 62.3874 253.307 65.1506C253.126 65.6998 252.946 66.249 252.765 66.7982C250.832 72.67 248.867 78.5311 246.888 84.3873C245.071 89.7647 243.298 95.155 241.563 100.559C241.469 100.852 241.375 101.144 241.278 101.446C240.323 104.418 239.383 107.393 238.491 110.384C237.758 112.838 236.969 115.269 236.145 117.694C235.757 118.835 235.372 119.978 234.987 121.12C234.908 121.356 234.828 121.592 234.747 121.835C233.648 125.104 232.588 128.385 231.527 131.666C231.417 132.006 231.417 132.006 231.305 132.353C231.167 132.778 231.03 133.203 230.893 133.627C230.435 135.04 230.435 135.04 230.101 135.706C192.003 135.706 153.905 135.706 114.652 135.706C109.886 121.875 109.886 121.875 108.427 117.471C108.351 117.243 108.275 117.015 108.198 116.78C107.082 113.404 105.99 110.02 104.9 106.635C104.797 106.317 104.695 105.999 104.589 105.672C102.73 99.9047 102.73 99.9047 101.893 97.007C100.888 93.5389 99.7032 90.1271 98.5487 86.706C98.3046 85.9802 98.0606 85.2543 97.8166 84.5284C97.2211 82.7567 96.6246 80.9852 96.0278 79.2139C95.3073 77.0753 94.5878 74.9364 93.8699 72.7969C93.8014 72.5928 93.7329 72.3888 93.6624 72.1785C92.2873 68.0776 90.9352 63.9692 89.5857 59.8599C89.4842 59.5513 89.3828 59.2426 89.2783 58.9246C88.2742 55.8683 87.2749 52.8107 86.2974 49.7459C86.1914 49.4152 86.1914 49.4152 86.0834 49.0779C85.5856 47.5092 85.1366 45.9296 84.7002 44.3431C83.6467 40.5776 82.3707 36.8825 81.1169 33.1795C80.9685 32.7409 80.8203 32.3021 80.6725 31.8632C80.3771 30.9878 80.0775 30.1154 79.7576 29.2486C78.9529 27.0489 78.9529 27.0489 79.4764 25.9284C80.1916 25.2437 80.1916 25.2437 81.1488 24.545C81.3227 24.4167 81.4967 24.2884 81.6759 24.1562C83.1853 23.0534 84.7331 22.0045 86.2823 20.9582C88.1342 19.703 89.9361 18.3857 91.7357 17.0577C93.3961 15.8325 95.0665 14.6222 96.7448 13.4214C98.4931 12.1693 100.227 10.901 101.947 9.61116C108.239 4.89962 108.239 4.89962 111.042 3.1859C113.798 1.3914 116.425 -0.627754 119.02 -2.64462C120.346 -3.67566 121.694 -4.67518 123.051 -5.66621C123.296 -5.84495 123.541 -6.02369 123.793 -6.20785C124.553 -6.76331 125.315 -7.31787 126.077 -7.87222C126.32 -8.04945 126.563 -8.22667 126.813 -8.40927C129.197 -10.1456 131.577 -11.8488 134.089 -13.4001C135.01 -13.9924 135.859 -14.6535 136.717 -15.3327C140.074 -17.9681 143.556 -20.4468 147.028 -22.929C148.207 -23.7724 149.384 -24.6184 150.561 -25.4643C150.789 -25.6283 151.017 -25.7923 151.253 -25.9613C152.44 -26.8143 153.625 -27.6703 154.807 -28.5303C155.93 -29.3449 157.063 -30.1445 158.201 -30.9391C160.553 -32.582 162.877 -34.2579 165.186 -35.9596C166.859 -37.1911 168.543 -38.4041 170.242 -39.5996C171.043 -40.1452 171.043 -40.1452 171.775 -40.7755Z" fill="#7876F4"/>
<path d="M39.1813 -50.946C41.7361 -44.3094 44.2178 -37.6465 46.6861 -30.9776C47.2467 -29.4631 47.8087 -27.949 48.3732 -26.4359C48.6742 -25.6287 48.9743 -24.8211 49.2742 -24.0135C49.4682 -23.4921 49.6633 -22.9711 49.8584 -22.4502C50.4904 -20.7445 51.0703 -19.0317 51.6018 -17.2926C52.5197 -14.3056 53.6343 -11.3931 54.7398 -8.47089C54.942 -7.93384 55.1439 -7.39675 55.3458 -6.85961C56.0782 -4.91249 56.8132 -2.96637 57.5491 -1.02057C59.3891 3.84512 61.1981 8.72154 62.9927 13.604C63.3328 14.5289 63.6734 15.4536 64.0141 16.3783C64.178 16.8249 64.178 16.8249 64.3452 17.2804C64.8975 18.7792 65.4623 20.2714 66.0515 21.7562C66.165 22.0442 66.2786 22.3322 66.3955 22.629C66.6111 23.1733 66.8293 23.7166 67.0508 24.2586C67.1464 24.5006 67.242 24.7426 67.3405 24.9919C67.4258 25.2025 67.511 25.4131 67.5988 25.6301C67.7727 26.3508 67.7137 26.7365 67.4422 27.4236C66.8584 27.9533 66.289 28.4159 65.6571 28.8818C65.2726 29.1735 64.8882 29.4652 64.5038 29.757C64.2981 29.9115 64.0924 30.0659 63.8805 30.2251C62.9804 30.9047 62.0905 31.597 61.2001 32.2891C60.2876 32.9981 59.3728 33.7039 58.458 34.4099C57.8724 34.8623 57.2878 35.3159 56.7034 35.7698C55.3326 36.831 53.9682 37.8773 52.5038 38.8089C51.5262 39.4391 50.6891 40.1328 49.8355 40.9214C48.3942 42.2469 46.8633 43.3987 45.2864 44.556C43.8194 45.6372 42.3946 46.7589 40.9852 47.9134C39.1755 49.394 37.3279 50.811 35.4467 52.2004C34.3703 52.9962 33.3083 53.8029 32.2665 54.6436C31.0261 55.6445 29.7528 56.5944 28.4708 57.5413C26.5682 58.949 24.7178 60.4094 22.8854 61.9061C21.496 63.0392 20.0829 64.1342 18.6511 65.2136C17.5155 66.0765 16.4335 66.986 15.3551 67.9171C13.6937 69.3451 11.9401 70.6016 10.1359 71.8441C8.51949 72.9613 6.96162 74.1346 5.42733 75.3606C2.15127 77.975 2.15127 77.975 1.29982 77.975C0.0997687 71.3571 -0.0167962 64.6731 0.00166514 57.9639C0.00330335 57.3438 0.00401325 56.7237 0.00463326 56.1036C0.0144587 49.792 0.215855 43.562 0.999169 37.2946C1.04102 36.9314 1.08288 36.5682 1.126 36.1941C1.8198 30.2045 2.98667 24.3288 4.30629 18.45C4.38641 18.0896 4.46654 17.7292 4.54909 17.3579C6.91592 6.88243 10.6013 -3.518 15.1296 -13.2568C15.3993 -13.8424 15.6686 -14.4282 15.9376 -15.0142C16.0562 -15.271 16.1748 -15.5278 16.2969 -15.7923C16.6385 -16.5598 16.9447 -17.3363 17.2529 -18.1175C19.381 -23.2044 32.7756 -50.946 39.1813 -50.946Z" fill="#7876F4"/>
<path d="M111.946 146.774C113.631 150.998 115.205 155.261 116.769 159.53C117.173 160.633 117.582 161.735 117.995 162.835C118.089 163.085 118.183 163.336 118.28 163.594C118.444 164.032 118.61 164.471 118.776 164.909C119.241 166.149 119.645 167.399 120.029 168.666C120.656 170.714 121.38 172.717 122.13 174.723C122.273 175.107 122.415 175.49 122.558 175.874C122.864 176.7 123.172 177.526 123.479 178.352C123.998 179.746 124.514 181.141 125.029 182.536C125.302 183.275 125.575 184.013 125.847 184.751C126.021 185.22 126.194 185.688 126.367 186.156C127.399 188.95 128.442 191.74 129.494 194.527C130.872 198.178 132.238 201.835 133.593 205.495C133.71 205.812 133.827 206.129 133.948 206.456C135.629 211.002 137.248 215.556 138.739 220.167C139.123 221.308 139.55 222.432 139.982 223.556C140.207 224.246 140.207 224.246 140.207 225.143C137.166 225.028 134.292 224.293 131.357 223.554C130.965 223.457 130.965 223.457 130.565 223.357C124.959 221.952 119.491 220.203 114.051 218.264C113.559 218.089 113.559 218.089 113.058 217.911C106.157 215.426 99.5971 212.21 93.019 208.992C92.6054 208.79 92.1915 208.589 91.7772 208.388C89.1241 207.104 86.5688 205.751 84.0798 204.168C83.6225 203.88 83.6225 203.88 83.1559 203.586C79.0751 201.005 75.045 198.352 71.1143 195.549C70.9007 195.397 70.687 195.246 70.4668 195.089C69.182 194.162 67.9816 193.175 66.8065 192.113C66.2394 191.635 65.6578 191.245 65.0262 190.857C61.84 188.807 59.0751 186.03 56.2981 183.471C55.7003 182.922 55.1004 182.377 54.4942 181.838C52.878 180.394 51.3646 178.912 49.9352 177.282C48.8154 176.038 47.5994 174.886 46.4049 173.713C44.7054 172.039 43.0851 170.373 41.6122 168.496C41.0275 167.756 40.4187 167.041 39.7995 166.329C37.6206 163.818 35.6069 161.179 33.7636 158.414C33.1671 157.528 32.5325 156.686 31.8799 155.841C28.3661 151.199 28.3661 151.199 28.3661 149.765C44.9927 149.1 61.6206 148.476 78.2495 147.87C80.8669 147.775 83.4843 147.679 86.1017 147.583C88.6705 147.488 91.2393 147.394 93.8082 147.301C95.3231 147.245 96.8381 147.19 98.353 147.134C99.7596 147.082 101.166 147.031 102.573 146.98C103.085 146.962 103.597 146.943 104.109 146.924C106.722 146.827 109.331 146.743 111.946 146.774Z" fill="#7876F4"/>
</svg>
