<svg width="45" height="58" viewBox="0 0 45 58" fill="none" xmlns="http://www.w3.org/2000/svg">
<g clip-path="url(#clip0_636_8874)">
<g clip-path="url(#clip1_636_8874)">
<path d="M30.1517 20.7717C30.1525 19.8144 29.7746 18.8957 29.1005 18.2161L24.0617 13.0867C23.3821 12.4126 22.4633 12.0347 21.5061 12.0355C21.029 12.0327 20.5561 12.1241 20.1144 12.3045C19.6728 12.4849 19.2711 12.7507 18.9323 13.0867L-8.07392 40.0023C-8.41096 40.339 -8.67833 40.7388 -8.86076 41.1789C-9.04318 41.6189 -9.13708 42.0906 -9.13708 42.567C-9.13708 43.0434 -9.04318 43.5151 -8.86076 43.9552C-8.67833 44.3952 -8.41096 44.795 -8.07392 45.1317L-2.94454 50.2611C-2.60788 50.5981 -2.20808 50.8655 -1.76801 51.0479C-1.32794 51.2303 -0.856235 51.3242 -0.379854 51.3242C0.0965275 51.3242 0.568237 51.2303 1.0083 51.0479C1.44837 50.8655 1.84817 50.5981 2.18483 50.2611L29.1005 23.3455C29.4364 23.0067 29.7022 22.605 29.8826 22.1634C30.063 21.7217 30.1545 21.2488 30.1517 20.7717ZM18.8417 28.4748L13.7123 23.3455L14.9992 22.0586L20.1286 27.188L18.8417 28.4748ZM-0.370791 47.6873L-5.50017 42.5761L11.1567 25.9011L16.2861 31.0305L-0.370791 47.6873ZM22.6842 24.6323L17.5548 19.503L21.4155 15.6605L26.5267 20.7717L22.6842 24.6323ZM33.0155 29.6711C32.6759 29.3335 32.2165 29.144 31.7376 29.144C31.2588 29.144 30.7994 29.3335 30.4598 29.6711L29.173 30.958L27.8861 29.6711C27.5465 29.3335 27.0871 29.144 26.6083 29.144C26.1294 29.144 25.6701 29.3335 25.3305 29.6711C25.1606 29.8396 25.0257 30.04 24.9337 30.2609C24.8417 30.4818 24.7943 30.7187 24.7943 30.958C24.7943 31.1972 24.8417 31.4341 24.9337 31.655C25.0257 31.8759 25.1606 32.0763 25.3305 32.2448L26.6173 33.5136L25.3305 34.8005C25.0748 35.054 24.9005 35.3779 24.8297 35.7308C24.7589 36.0838 24.7948 36.4499 24.9328 36.7824C25.0709 37.1149 25.3048 37.3987 25.6048 37.5977C25.9049 37.7968 26.2573 37.9019 26.6173 37.8998C27.0954 37.893 27.5514 37.6976 27.8861 37.3561L29.173 36.0873L30.4598 37.3561C30.7994 37.6937 31.2588 37.8831 31.7376 37.8831C32.2165 37.8831 32.6759 37.6937 33.0155 37.3561C33.353 37.0165 33.5425 36.5571 33.5425 36.0783C33.5425 35.5994 33.353 35.14 33.0155 34.8005L31.7467 33.5136L33.0155 32.2448C33.1853 32.0763 33.3202 31.8759 33.4122 31.655C33.5042 31.4341 33.5516 31.1972 33.5516 30.958C33.5516 30.7187 33.5042 30.4818 33.4122 30.2609C33.3202 30.04 33.1853 29.8396 33.0155 29.6711ZM9.86983 11.7998C10.0377 11.9711 10.2379 12.1073 10.4588 12.2007C10.6797 12.294 10.9169 12.3426 11.1567 12.3436C11.3965 12.3426 11.6337 12.294 11.8546 12.2007C12.0755 12.1073 12.2757 11.9711 12.4436 11.7998L13.7123 10.5311L14.9992 11.7998C15.1671 11.9711 15.3672 12.1073 15.5881 12.2007C15.809 12.294 16.0463 12.3426 16.2861 12.3436C16.7642 12.3368 17.2202 12.1413 17.5548 11.7998C17.8924 11.4602 18.0819 11.0009 18.0819 10.522C18.0819 10.0432 17.8924 9.5838 17.5548 9.2442L16.2861 7.95733L17.5548 6.68858C17.7247 6.52008 17.8596 6.31962 17.9516 6.09875C18.0436 5.87788 18.091 5.64097 18.091 5.4017C18.091 5.16243 18.0436 4.92553 17.9516 4.70466C17.8596 4.48379 17.7247 4.28332 17.5548 4.11483C17.2152 3.77725 16.7559 3.58777 16.277 3.58777C15.7982 3.58777 15.3388 3.77725 14.9992 4.11483L13.7123 5.43795L12.4436 4.15108C12.2746 3.98208 12.074 3.84803 11.8532 3.75657C11.6324 3.66511 11.3957 3.61804 11.1567 3.61804C10.9177 3.61804 10.6811 3.66511 10.4603 3.75657C10.2394 3.84803 10.0388 3.98208 9.86983 4.15108C9.52853 4.49238 9.33679 4.95528 9.33679 5.43795C9.33679 5.92063 9.52853 6.38353 9.86983 6.72483L11.1567 7.99358L9.86983 9.28045C9.54314 9.61842 9.36053 10.0701 9.36053 10.5401C9.36053 11.0102 9.54314 11.4619 9.86983 11.7998ZM35.4986 11.7998L36.7855 10.5311C36.9553 10.3626 37.0902 10.1621 37.1822 9.94125C37.2742 9.72038 37.3216 9.48347 37.3216 9.2442C37.3216 9.00493 37.2742 8.76803 37.1822 8.54716C37.0902 8.32629 36.9553 8.12582 36.7855 7.95733C36.4459 7.61975 35.9865 7.43026 35.5076 7.43026C35.0288 7.43026 34.5694 7.61975 34.2298 7.95733L32.943 9.2442L31.6561 7.95733C31.3165 7.61975 30.8571 7.43027 30.3783 7.43027C29.8994 7.43027 29.4401 7.61975 29.1005 7.95733C28.9306 8.12582 28.7957 8.32629 28.7037 8.54716C28.6117 8.76803 28.5643 9.00493 28.5643 9.2442C28.5643 9.48347 28.6117 9.72038 28.7037 9.94125C28.7957 10.1621 28.9306 10.3626 29.1005 10.5311L30.3873 11.7998L29.1005 13.0867C28.7592 13.4256 28.5665 13.8862 28.5648 14.3672C28.5631 14.8481 28.7525 15.3101 29.0914 15.6514C29.4303 15.9927 29.8909 16.1854 30.3719 16.1871C30.8528 16.1888 31.3148 15.9993 31.6561 15.6605L32.943 14.3736L34.2298 15.6605C34.5812 15.9337 35.0208 16.0681 35.4649 16.0381C35.9089 16.008 36.3264 15.8157 36.6378 15.4976C36.9491 15.1795 37.1326 14.758 37.1531 14.3134C37.1737 13.8688 37.0299 13.4321 36.7492 13.0867L35.4986 11.7998Z" fill="#9BED16"/>
<g opacity="0.3" filter="url(#filter0_f_636_8874)">
<path d="M31.2888 22.1842C31.2896 21.2269 30.9116 20.3082 30.2375 19.6286L25.1988 14.4992C24.5191 13.8251 23.6004 13.4472 22.6432 13.4479C22.1661 13.4452 21.6932 13.5366 21.2515 13.717C20.8098 13.8974 20.4081 14.1632 20.0694 14.4992L-6.93683 41.4148C-7.27387 41.7515 -7.54125 42.1513 -7.72367 42.5913C-7.9061 43.0314 -8 43.5031 -8 43.9795C-8 44.4559 -7.9061 44.9276 -7.72367 45.3677C-7.54125 45.8077 -7.27387 46.2075 -6.93683 46.5442L-1.80746 51.6736C-1.47079 52.0106 -1.071 52.278 -0.630928 52.4604C-0.190859 52.6428 0.28085 52.7367 0.757231 52.7367C1.23361 52.7367 1.70532 52.6428 2.14539 52.4604C2.58546 52.278 2.98525 52.0106 3.32192 51.6736L30.2375 24.7579C30.5735 24.4192 30.8393 24.0175 31.0197 23.5758C31.2001 23.1342 31.2916 22.6613 31.2888 22.1842ZM19.9788 29.8873L14.8494 24.7579L16.1363 23.4711L21.2657 28.6004L19.9788 29.8873ZM0.766294 49.0998L-4.36308 43.9886L12.2938 27.3136L17.4232 32.4429L0.766294 49.0998ZM23.8213 26.0448L18.6919 20.9154L22.5525 17.0729L27.6638 22.1842L23.8213 26.0448ZM34.1525 31.0836C33.8129 30.746 33.3536 30.5565 32.8747 30.5565C32.3959 30.5565 31.9365 30.746 31.5969 31.0836L30.31 32.3704L29.0232 31.0836C28.6836 30.746 28.2242 30.5565 27.7454 30.5565C27.2665 30.5565 26.8071 30.746 26.4675 31.0836C26.2977 31.2521 26.1628 31.4525 26.0708 31.6734C25.9788 31.8943 25.9314 32.1312 25.9314 32.3704C25.9314 32.6097 25.9788 32.8466 26.0708 33.0675C26.1628 33.2883 26.2977 33.4888 26.4675 33.6573L27.7544 34.9261L26.4675 36.2129C26.2119 36.4664 26.0376 36.7903 25.9668 37.1433C25.896 37.4963 25.9319 37.8624 26.0699 38.1949C26.208 38.5274 26.4419 38.8112 26.7419 39.0102C27.0419 39.2092 27.3944 39.3144 27.7544 39.3123C28.2325 39.3055 28.6885 39.1101 29.0232 38.7686L30.31 37.4998L31.5969 38.7686C31.9365 39.1061 32.3959 39.2956 32.8747 39.2956C33.3536 39.2956 33.8129 39.1061 34.1525 38.7686C34.4901 38.429 34.6796 37.9696 34.6796 37.4907C34.6796 37.0119 34.4901 36.5525 34.1525 36.2129L32.8838 34.9261L34.1525 33.6573C34.3224 33.4888 34.4573 33.2883 34.5493 33.0675C34.6413 32.8466 34.6887 32.6097 34.6887 32.3704C34.6887 32.1312 34.6413 31.8943 34.5493 31.6734C34.4573 31.4525 34.3224 31.2521 34.1525 31.0836ZM11.0069 13.2123C11.1748 13.3836 11.375 13.5198 11.5959 13.6131C11.8168 13.7065 12.054 13.7551 12.2938 13.7561C12.5336 13.7551 12.7708 13.7065 12.9917 13.6131C13.2126 13.5198 13.4128 13.3836 13.5807 13.2123L14.8494 11.9436L16.1363 13.2123C16.3042 13.3836 16.5043 13.5198 16.7252 13.6131C16.9461 13.7065 17.1834 13.7551 17.4232 13.7561C17.9012 13.7492 18.3573 13.5538 18.6919 13.2123C19.0295 12.8727 19.219 12.4133 19.219 11.9345C19.219 11.4557 19.0295 10.9963 18.6919 10.6567L17.4232 9.3698L18.6919 8.10105C18.8618 7.93256 18.9966 7.73209 19.0887 7.51122C19.1807 7.29035 19.2281 7.05345 19.2281 6.81418C19.2281 6.57491 19.1807 6.338 19.0887 6.11713C18.9966 5.89626 18.8618 5.6958 18.6919 5.5273C18.3523 5.18972 17.8929 5.00024 17.4141 5.00024C16.9353 5.00024 16.4759 5.18972 16.1363 5.5273L14.8494 6.85043L13.5807 5.56355C13.4117 5.39456 13.211 5.26051 12.9902 5.16905C12.7694 5.07759 12.5328 5.03051 12.2938 5.03051C12.0548 5.03051 11.8181 5.07759 11.5973 5.16905C11.3765 5.26051 11.1759 5.39456 11.0069 5.56355C10.6656 5.90485 10.4739 6.36776 10.4739 6.85043C10.4739 7.3331 10.6656 7.796 11.0069 8.1373L12.2938 9.40605L11.0069 10.6929C10.6802 11.0309 10.4976 11.4826 10.4976 11.9526C10.4976 12.4227 10.6802 12.8743 11.0069 13.2123ZM36.6357 13.2123L37.9225 11.9436C38.0924 11.7751 38.2273 11.5746 38.3193 11.3537C38.4113 11.1329 38.4587 10.8959 38.4587 10.6567C38.4587 10.4174 38.4113 10.1805 38.3193 9.95963C38.2273 9.73876 38.0924 9.5383 37.9225 9.3698C37.5829 9.03222 37.1236 8.84274 36.6447 8.84274C36.1659 8.84274 35.7065 9.03222 35.3669 9.3698L34.08 10.6567L32.7932 9.3698C32.4536 9.03222 31.9942 8.84274 31.5154 8.84274C31.0365 8.84274 30.5771 9.03222 30.2375 9.3698C30.0677 9.5383 29.9328 9.73876 29.8408 9.95963C29.7488 10.1805 29.7014 10.4174 29.7014 10.6567C29.7014 10.8959 29.7488 11.1329 29.8408 11.3537C29.9328 11.5746 30.0677 11.7751 30.2375 11.9436L31.5244 13.2123L30.2375 14.4992C29.8962 14.8381 29.7035 15.2987 29.7018 15.7796C29.7001 16.2606 29.8896 16.7226 30.2285 17.0639C30.5674 17.4052 31.028 17.5979 31.5089 17.5996C31.9899 17.6013 32.4519 17.4118 32.7932 17.0729L34.08 15.7861L35.3669 17.0729C35.7183 17.3462 36.1579 17.4806 36.6019 17.4506C37.046 17.4205 37.4635 17.2281 37.7749 16.9101C38.0862 16.592 38.2697 16.1705 38.2902 15.7259C38.3107 15.2812 38.167 14.8446 37.8863 14.4992L36.6357 13.2123Z" fill="#D8F8A5"/>
</g>
</g>
</g>
<defs>
<filter id="filter0_f_636_8874" x="-23" y="-9.99976" width="76.4586" height="77.7365" filterUnits="userSpaceOnUse" color-interpolation-filters="sRGB">
<feFlood flood-opacity="0" result="BackgroundImageFix"/>
<feBlend mode="normal" in="SourceGraphic" in2="BackgroundImageFix" result="shape"/>
<feGaussianBlur stdDeviation="7.5" result="effect1_foregroundBlur_636_8874"/>
</filter>
<clipPath id="clip0_636_8874">
<rect width="58" height="58" fill="white" transform="translate(-13)"/>
</clipPath>
<clipPath id="clip1_636_8874">
<rect width="58" height="58" fill="white" transform="translate(-14.0009 0.000244141)"/>
</clipPath>
</defs>
</svg>
