<svg width="20" height="20" viewBox="0 0 20 20" fill="none" xmlns="http://www.w3.org/2000/svg">
<mask id="mask0_1332_19303" style="mask-type:alpha" maskUnits="userSpaceOnUse" x="0" y="0" width="20" height="20">
<rect width="20" height="20" fill="#D9D9D9"/>
</mask>
<g mask="url(#mask0_1332_19303)">
<path d="M8.10425 11.6667L10.0001 10.5208L11.8959 11.6667L11.3959 9.5L13.0626 8.0625L10.8751 7.875L10.0001 5.83333L9.12508 7.875L6.93758 8.0625L8.60425 9.5L8.10425 11.6667ZM4.16675 17.5V4.16667C4.16675 3.70833 4.32994 3.31597 4.65633 2.98958C4.98272 2.66319 5.37508 2.5 5.83341 2.5H14.1667C14.6251 2.5 15.0174 2.66319 15.3438 2.98958C15.6702 3.31597 15.8334 3.70833 15.8334 4.16667V17.5L10.0001 15L4.16675 17.5ZM5.83341 14.9583L10.0001 13.1667L14.1667 14.9583V4.16667H5.83341V14.9583Z" fill="#282832"/>
</g>
</svg>
