<svg width="20" height="20" viewBox="0 0 20 20" fill="none" xmlns="http://www.w3.org/2000/svg">
<mask id="mask0_1054_12947" style="mask-type:alpha" maskUnits="userSpaceOnUse" x="0" y="0" width="20" height="20">
<rect width="20" height="20" fill="#D9D9D9"/>
</mask>
<g mask="url(#mask0_1054_12947)">
<path d="M10.0001 18.3334C8.8473 18.3334 7.76397 18.1146 6.75008 17.6771C5.73619 17.2396 4.85425 16.6459 4.10425 15.8959C3.35425 15.1459 2.7605 14.2639 2.323 13.25C1.8855 12.2361 1.66675 11.1528 1.66675 10C1.66675 8.84724 1.8855 7.76391 2.323 6.75002C2.7605 5.73613 3.35425 4.85419 4.10425 4.10419C4.85425 3.35419 5.73619 2.76044 6.75008 2.32294C7.76397 1.88544 8.8473 1.66669 10.0001 1.66669C11.1529 1.66669 12.2362 1.88544 13.2501 2.32294C14.264 2.76044 15.1459 3.35419 15.8959 4.10419C16.6459 4.85419 17.2397 5.73613 17.6772 6.75002C18.1147 7.76391 18.3334 8.84724 18.3334 10C18.3334 11.1528 18.1147 12.2361 17.6772 13.25C17.2397 14.2639 16.6459 15.1459 15.8959 15.8959C15.1459 16.6459 14.264 17.2396 13.2501 17.6771C12.2362 18.1146 11.1529 18.3334 10.0001 18.3334ZM14.1667 7.91669L15.2917 7.54169L15.6251 6.41669C15.1806 5.75002 14.6459 5.1771 14.0209 4.69794C13.3959 4.21877 12.7084 3.86113 11.9584 3.62502L10.8334 4.41669V5.58335L14.1667 7.91669ZM5.83342 7.91669L9.16675 5.58335V4.41669L8.04175 3.62502C7.29175 3.86113 6.60425 4.21877 5.97925 4.69794C5.35425 5.1771 4.81953 5.75002 4.37508 6.41669L4.70842 7.54169L5.83342 7.91669ZM4.95841 14.3334L5.91675 14.25L6.54175 13.125L5.33342 9.50002L4.16675 9.08335L3.33341 9.70835C3.33341 10.6111 3.45841 11.434 3.70841 12.1771C3.95841 12.9202 4.37508 13.6389 4.95841 14.3334ZM10.0001 16.6667C10.3612 16.6667 10.7154 16.6389 11.0626 16.5834C11.4098 16.5278 11.7501 16.4445 12.0834 16.3334L12.6667 15.0834L12.1251 14.1667H7.87508L7.33342 15.0834L7.91675 16.3334C8.25008 16.4445 8.59036 16.5278 8.93758 16.5834C9.2848 16.6389 9.63897 16.6667 10.0001 16.6667ZM8.12508 12.5H11.8751L13.0417 9.16669L10.0001 7.04169L7.00008 9.16669L8.12508 12.5ZM15.0417 14.3334C15.6251 13.6389 16.0417 12.9202 16.2917 12.1771C16.5417 11.434 16.6667 10.6111 16.6667 9.70835L15.8334 9.12502L14.6667 9.50002L13.4584 13.125L14.0834 14.25L15.0417 14.3334Z" fill="#282832"/>
</g>
</svg>
