<svg width="20" height="20" viewBox="0 0 20 20" fill="none" xmlns="http://www.w3.org/2000/svg">
<mask id="mask0_1054_12952" style="mask-type:alpha" maskUnits="userSpaceOnUse" x="0" y="0" width="20" height="20">
<rect width="20" height="20" fill="#D9D9D9"/>
</mask>
<g mask="url(#mask0_1054_12952)">
<path d="M5.83325 1.66669H14.1666V8.20835C14.1666 8.5278 14.0971 8.81252 13.9583 9.06252C13.8194 9.31252 13.6249 9.51391 13.3749 9.66669L10.4166 11.4167L10.9999 13.3334H14.1666L11.5833 15.1667L12.5833 18.3334L9.99992 16.375L7.41659 18.3334L8.41659 15.1667L5.83325 13.3334H8.99992L9.58325 11.4167L6.62492 9.66669C6.37492 9.51391 6.18047 9.31252 6.04159 9.06252C5.9027 8.81252 5.83325 8.5278 5.83325 8.20835V1.66669ZM7.49992 3.33335V8.20835L9.16659 9.20835V3.33335H7.49992ZM12.4999 3.33335H10.8333V9.20835L12.4999 8.20835V3.33335Z" fill="#282832"/>
</g>
</svg>
