<svg width="20" height="20" viewBox="0 0 20 20" fill="none" xmlns="http://www.w3.org/2000/svg">
<mask id="mask0_1054_12942" style="mask-type:alpha" maskUnits="userSpaceOnUse" x="0" y="0" width="20" height="20">
<rect width="20" height="20" fill="#D9D9D9"/>
</mask>
<g mask="url(#mask0_1054_12942)">
<path d="M4.58341 9.16669L1.66675 7.50002V4.16669L4.58341 2.50002L7.50008 4.16669V7.50002L4.58341 9.16669ZM4.58341 7.25002L5.83342 6.54169V5.12502L4.58341 4.41669L3.33341 5.12502V6.54169L4.58341 7.25002ZM13.7501 9.81252V7.87502L16.6667 9.58335V15.4167L11.6667 18.3334L6.66675 15.4167V9.58335L9.58342 7.87502V9.81252L8.33342 10.5417V14.4584L11.6667 16.3959L15.0001 14.4584V10.5417L13.7501 9.81252ZM10.8334 11.6667V1.66669H18.3334L16.6667 4.16669L18.3334 6.66669H12.5001V11.6667H10.8334Z" fill="#282832"/>
</g>
</svg>
